HIERARCHY
ROOT root
{
	OFFSET 0.000000 0.000000 0.000000
	CHANNELS 6 Xposition Yposition Zposition Zrotation Yrotation Xrotation
	JOINT lhip
	{
		OFFSET 0.058581 -0.082280 -0.017664
		CHANNELS 3 Zrotation Yrotation Xrotation
		JOINT lknee
		{
			OFFSET 0.043451 -0.386469 0.008037
			CHANNELS 3 Zrotation Yrotation Xrotation
			JOINT lankle
			{
				OFFSET -0.014790 -0.426874 -0.037428
				CHANNELS 3 Zrotation Yrotation Xrotation
				JOINT ltoe
				{
					OFFSET 0.041054 -0.060286 0.122042
					CHANNELS 3 Zrotation Yrotation Xrotation
					End Site
					{
						OFFSET 0.000000 0.000000 0.000000
					}
				}
			}
		}
	}
	JOINT rhip
	{
		OFFSET -0.060310 -0.090513 -0.013543
		CHANNELS 3 Zrotation Yrotation Xrotation
		JOINT rknee
		{
			OFFSET -0.043257 -0.383688 -0.004843
			CHANNELS 3 Zrotation Yrotation Xrotation
			JOINT rankle
			{
				OFFSET 0.019056 -0.420046 -0.034562
				CHANNELS 3 Zrotation Yrotation Xrotation
				JOINT rtoe
				{
					OFFSET -0.034840 -0.062106 0.130323
					CHANNELS 3 Zrotation Yrotation Xrotation
					End Site
					{
						OFFSET 0.000000 0.000000 0.000000
					}
				}
			}
		}
	}
	JOINT lowerback
	{
		OFFSET 0.004439 0.124404 -0.038385
		CHANNELS 3 Zrotation Yrotation Xrotation
		JOINT upperback
		{
			OFFSET 0.004488 0.137956 0.026820
			CHANNELS 3 Zrotation Yrotation Xrotation
			JOINT chest
			{
				OFFSET -0.002265 0.056032 0.002855
				CHANNELS 3 Zrotation Yrotation Xrotation
				JOINT lowerneck
				{
					OFFSET -0.013390 0.211636 -0.033468
					CHANNELS 3 Zrotation Yrotation Xrotation
					JOINT upperneck
					{
						OFFSET 0.010113 0.088937 0.050410
						CHANNELS 3 Zrotation Yrotation Xrotation
						End Site
						{
							OFFSET 0.000000 0.000000 0.000000
						}
					}
				}
				JOINT lclavicle
				{
					OFFSET 0.071702 0.114000 -0.018898
					CHANNELS 3 Zrotation Yrotation Xrotation
					JOINT lshoulder
					{
						OFFSET 0.122921 0.045205 -0.019046
						CHANNELS 3 Zrotation Yrotation Xrotation
						JOINT lelbow
						{
							OFFSET 0.255332 -0.015649 -0.022946
							CHANNELS 3 Zrotation Yrotation Xrotation
							JOINT lwrist
							{
								OFFSET 0.265709 0.012698 -0.007375
								CHANNELS 3 Zrotation Yrotation Xrotation
								End Site
								{
									OFFSET 0.000000 0.000000 0.000000
								}
							}
						}
					}
				}
				JOINT rclavicle
				{
					OFFSET -0.082954 0.112472 -0.023707
					CHANNELS 3 Zrotation Yrotation Xrotation
					JOINT rshoulder
					{
						OFFSET -0.113228 0.046853 -0.008472
						CHANNELS 3 Zrotation Yrotation Xrotation
						JOINT relbow
						{
							OFFSET -0.260127 -0.014369 -0.031269
							CHANNELS 3 Zrotation Yrotation Xrotation
							JOINT rwrist
							{
								OFFSET -0.269108 0.006794 -0.006027
								CHANNELS 3 Zrotation Yrotation Xrotation
								End Site
								{
									OFFSET 0.000000 0.000000 0.000000
								}
							}
						}
					}
				}
			}
		}
	}
}
MOTION
Frames: 16
Frame Time: 0.033333
-0.153513 0.237184 1.004023 91.697718 0.392835 87.511001 2.258965 1.450304 6.687853 -2.876197 -10.400358 2.091609 2.207995 5.826963 -10.960762 0.000000 -0.000000 0.000000 -0.871416 -2.089040 0.014610 -0.084611 -1.369262 12.141425 3.616837 -7.984199 -9.883896 0.000000 -0.000000 0.000000 -0.083999 -0.347230 7.939861 1.546274 -0.035621 -5.573158 0.560927 -1.938632 -1.577401 3.378111 -0.551477 -8.855353 -3.416459 -8.093016 13.164369 -29.380183 10.006731 -0.531951 -55.252178 -6.601515 7.134291 11.626071 -22.695184 1.135360 -2.810101 -3.176109 -7.645336 31.995448 -2.789663 -3.296096 52.924816 5.523733 13.825999 -12.306767 17.407020 -10.512115 6.489301 2.323241 -7.754745 
-0.153084 0.236985 1.003821 91.696582 0.363691 87.611307 2.237628 1.401687 6.573255 -2.865415 -10.405337 2.152691 2.145399 5.890873 -10.980611 0.000000 -0.000000 0.000000 -0.876179 -1.830754 -0.043657 -0.036255 -1.417834 12.111751 3.734001 -8.227350 -9.820748 0.000000 -0.000000 0.000000 -0.121465 -0.433794 7.898166 1.513949 0.006129 -5.541779 0.592413 -1.926348 -1.513982 3.310356 -0.344886 -9.116897 -3.525590 -7.953368 13.431598 -29.096168 9.968822 -0.364497 -55.315126 -6.668556 7.279817 11.235484 -22.319379 1.853684 -2.914143 -3.490099 -7.334639 32.004822 -2.907977 -3.384196 53.004616 5.362333 13.909327 -12.210881 17.265473 -10.392816 6.477938 2.558906 -7.663330 
-0.152859 0.236734 1.003696 91.774158 0.313511 87.601299 2.209800 1.372710 6.555485 -2.898031 -10.487168 2.198441 2.201867 5.926248 -10.900884 0.000000 -0.000000 0.000000 -0.901788 -1.825425 -0.041395 -0.012426 -1.362404 12.196995 3.651675 -8.402265 -9.927176 0.000000 -0.000000 0.000000 -0.202917 -0.395171 7.942463 1.587959 -0.097007 -5.451546 0.620431 -2.024990 -1.443749 3.192391 -0.053382 -8.937025 -3.667437 -7.661071 13.266277 -29.038931 9.867329 -0.021011 -55.016555 -6.428380 7.447770 10.570453 -22.701597 2.569104 -3.064095 -3.335444 -7.297558 32.051179 -2.905732 -3.264880 52.912355 5.292942 13.892617 -12.163209 17.247923 -10.249217 6.516132 2.496058 -7.689214 
-0.153063 0.236372 1.003638 91.697406 0.321631 87.649944 2.194839 1.318712 6.364061 -2.883009 -10.394611 2.486432 2.237224 5.990229 -11.035318 0.000000 -0.000000 0.000000 -0.860725 -1.945202 -0.132352 -0.009042 -1.192510 12.229302 3.660225 -8.426186 -9.949875 0.000000 -0.000000 0.000000 -0.118063 -0.343326 8.096339 1.604276 -0.143597 -5.466824 0.611488 -2.120950 -1.304248 3.049948 0.401666 -9.072559 -3.810763 -7.170670 13.340172 -28.958228 9.893658 0.031045 -54.816518 -6.087374 7.689370 9.952123 -23.436752 3.587241 -3.029647 -3.041689 -6.643083 32.075982 -3.004790 -3.318107 52.838582 5.231551 13.869019 -11.961783 17.066810 -10.053914 6.419990 2.655333 -7.404611 
-0.153158 0.236312 1.003733 91.649232 0.306125 87.638682 2.190393 1.431886 6.318824 -2.901742 -10.532278 2.589994 2.266960 6.004756 -11.108821 0.000000 -0.000000 0.000000 -0.875369 -2.038926 -0.144969 -0.010148 -1.106313 12.260364 3.730408 -8.402177 -10.038570 0.000000 -0.000000 0.000000 -0.087403 -0.415892 8.260062 1.616354 -0.160591 -5.485384 0.584251 -2.117158 -1.365931 3.004349 0.597242 -8.916711 -3.888658 -6.907039 13.276947 -28.902582 10.049318 0.099344 -54.640861 -5.547934 7.819431 9.507979 -24.320971 4.319828 -3.151256 -2.702365 -6.512174 32.119849 -3.100580 -3.254622 52.724689 5.116726 13.789405 -11.855996 16.984629 -9.935011 6.453083 2.651405 -7.171452 
-0.153654 0.236271 1.003662 91.555860 0.313002 87.634889 2.186264 1.378866 6.294393 -2.934567 -10.423140 2.658624 2.380077 6.090116 -11.187178 0.000000 -0.000000 0.000000 -0.883839 -1.968295 -0.214861 0.068866 -0.934293 12.350780 3.672601 -8.511006 -10.100331 0.000000 -0.000000 0.000000 -0.051076 -0.416689 8.276689 1.664305 -0.141524 -5.352527 0.587285 -2.088581 -1.215640 2.898147 1.026394 -8.968182 -3.926985 -6.486866 13.380953 -28.869120 10.023302 0.162172 -54.724996 -5.353182 8.079149 8.941626 -24.352854 5.456448 -3.699491 -3.123095 -6.226883 32.179046 -3.245505 -3.124771 52.516972 5.132969 13.730748 -11.838434 17.186352 -9.785726 6.571504 2.526101 -7.158073 
-0.154446 0.236285 1.003651 91.565121 0.348177 87.649349 2.219971 1.361244 6.063483 -2.962757 -10.337311 2.944992 2.330464 5.974789 -11.303668 0.000000 -0.000000 0.000000 -0.841260 -1.994914 -0.310421 0.046082 -0.994725 12.369026 3.583846 -8.451568 -10.033474 0.000000 -0.000000 0.000000 0.057972 -0.393359 8.392227 1.679504 -0.174713 -5.209220 0.577917 -2.073492 -1.232116 2.823355 1.194340 -8.803465 -3.922142 -6.137013 13.100190 -28.893114 9.856078 0.302639 -54.878147 -5.173721 8.200227 8.703534 -24.576393 5.873950 -4.038602 -3.067264 -6.149587 32.089501 -3.208172 -3.104950 52.512144 5.075409 13.586488 -11.851091 16.772158 -9.740847 6.718981 2.702124 -7.113627 
-0.155698 0.236333 1.003650 91.585464 0.349061 87.686373 2.190586 1.192827 5.819852 -3.017842 -10.264386 3.194442 2.423730 6.050620 -11.220372 0.000000 -0.000000 0.000000 -0.839250 -1.842797 -0.503695 0.078970 -1.017543 12.482412 3.563204 -8.582664 -10.055960 0.000000 -0.000000 0.000000 0.184356 -0.279020 8.584168 1.667722 -0.238111 -5.151276 0.522086 -2.150660 -1.136531 2.768883 1.412562 -9.055271 -3.870636 -5.819837 13.094911 -28.865791 9.821207 0.335037 -55.126292 -5.202277 8.394842 8.430147 -24.480264 6.395405 -4.172677 -3.260583 -6.218451 32.036659 -3.288210 -3.227518 52.446349 4.920665 13.651488 -11.759496 16.638436 -9.575330 6.678587 2.840065 -7.185289 
-0.155941 0.236430 1.003776 91.431906 0.302419 87.550382 2.117514 1.233294 6.004167 -3.001117 -10.346445 3.098434 2.405727 6.165022 -11.190945 0.000000 -0.000000 0.000000 -0.905085 -1.890541 -0.412185 0.059597 -0.946971 12.542041 3.585257 -8.497575 -10.077224 0.000000 -0.000000 0.000000 0.170268 -0.324855 8.681962 1.636145 -0.174437 -4.888300 0.560779 -2.056832 -1.011128 2.691836 1.511136 -9.198933 -3.822446 -5.693490 12.898673 -28.998849 9.798782 0.219673 -55.404025 -5.130833 8.462441 8.353352 -24.490339 6.584237 -4.180392 -3.075168 -6.090709 32.106922 -3.163826 -3.052413 52.247013 4.834364 13.541273 -11.817546 16.703627 -9.764474 6.657058 2.692296 -7.102363 
-0.157297 0.236690 1.003977 91.299204 0.192065 87.527603 1.929869 1.335172 5.914365 -2.980734 -10.394305 3.249953 2.434278 6.234112 -11.335247 0.000000 -0.000000 0.000000 -1.057654 -1.861675 -0.636764 0.041429 -0.973597 12.767692 3.687117 -8.357818 -10.023117 0.000000 -0.000000 0.000000 0.189236 -0.468403 8.975167 1.482903 0.044411 -4.766868 0.517937 -1.996273 -0.775575 2.648468 1.687202 -9.874178 -3.683044 -5.481195 12.770720 -29.115909 9.799222 0.004598 -55.482368 -4.975145 8.579094 7.923545 -24.932347 7.367461 -4.311831 -3.321909 -6.017718 32.082028 -3.367457 -3.332089 52.335040 4.792529 13.445539 -11.619981 16.694004 -9.426681 6.550718 2.769874 -6.951543 
-0.158292 0.236850 1.003963 91.346475 0.162674 87.510534 1.872284 1.248957 5.796903 -3.006328 -10.338230 3.375220 2.510932 6.256715 -11.261395 0.000000 -0.000000 0.000000 -1.097667 -1.744029 -0.751912 0.054498 -1.028267 12.929997 3.636782 -8.363129 -10.078972 0.000000 -0.000000 0.000000 0.151521 -0.544362 9.089645 1.483948 0.038877 -4.850967 0.510198 -2.031055 -0.747947 2.715110 1.845818 -9.477690 -3.685321 -5.369021 12.724798 -29.022434 9.742414 0.366968 -55.843848 -5.061083 8.677736 7.949501 -24.821429 7.435097 -4.289488 -3.316202 -6.097199 31.978545 -3.274431 -3.061522 52.398594 4.789976 13.546326 -11.596924 16.489230 -9.397107 6.611491 2.827893 -6.994446 
-0.159080 0.237131 1.004199 91.560218 0.184619 87.435402 1.857446 1.197099 5.794674 -2.973234 -10.455896 3.455545 2.488262 6.226295 -11.237252 0.000000 -0.000000 0.000000 -1.077634 -1.591877 -0.657003 0.082837 -1.185737 12.840044 3.612429 -8.626397 -10.053928 0.000000 -0.000000 0.000000 0.192807 -0.609809 9.307596 1.497472 0.002679 -4.801866 0.523428 -2.134223 -0.623052 2.707350 1.855272 -9.786338 -3.733486 -5.357137 12.710477 -29.126614 9.790879 0.261511 -55.956260 -5.021976 8.841140 7.683859 -25.000419 7.872813 -4.354422 -3.341709 -5.970488 31.943541 -3.276097 -3.131235 52.327948 4.787735 13.605100 -11.455490 16.496479 -9.319667 6.582363 2.817292 -6.963288 
-0.159893 0.237185 1.004388 91.563694 0.193469 87.448857 1.903410 1.238455 5.746294 -3.033451 -10.481140 3.409468 2.451653 6.217388 -11.192053 0.000000 -0.000000 0.000000 -1.050613 -1.691984 -0.715066 0.047823 -1.064499 12.848356 3.669129 -8.630316 -10.026530 0.000000 -0.000000 0.000000 0.240900 -0.503568 9.490591 1.477805 0.027856 -4.653777 0.505051 -2.120767 -0.556381 2.656146 1.919836 -10.348046 -3.651688 -5.347572 12.628225 -29.250165 9.900849 0.017348 -55.905181 -4.997413 8.929165 7.307031 -25.289256 8.403531 -4.316047 -3.344308 -5.807319 32.046642 -3.383538 -3.493777 52.222829 4.543209 13.544352 -11.432940 16.524511 -9.215735 6.566854 2.931815 -6.775415 
-0.160569 0.237398 1.004509 91.644696 0.156242 87.463704 1.884469 1.168998 5.743171 -3.063080 -10.358871 3.310270 2.509973 6.105016 -11.173194 0.000000 -0.000000 0.000000 -1.100480 -1.659331 -0.750728 0.075470 -1.070799 12.827929 3.606931 -8.707138 -10.008063 0.000000 -0.000000 0.000000 0.184646 -0.474355 9.407773 1.479737 -0.052784 -4.548222 0.493507 -2.170205 -0.543520 2.730721 2.005014 -10.003624 -3.634958 -5.157264 12.517472 -29.162698 9.942713 0.164100 -56.146448 -5.023923 8.970770 7.401064 -25.402899 8.434819 -4.496923 -3.328473 -5.836457 32.042577 -3.351868 -3.296560 52.333636 4.567847 13.580678 -11.571487 16.487090 -9.289523 6.872656 2.854425 -6.756172 
-0.160919 0.237598 1.004569 91.730869 0.179737 87.502401 1.924433 1.228991 5.674854 -3.089527 -10.405007 3.339222 2.396659 6.041458 -11.206215 0.000000 -0.000000 0.000000 -1.090735 -1.724747 -0.782255 0.060293 -1.062914 12.829637 3.694314 -8.717531 -9.969732 0.000000 -0.000000 0.000000 0.253612 -0.507073 9.442718 1.450688 -0.012802 -4.377287 0.480291 -2.191849 -0.430996 2.660509 2.051763 -10.399524 -3.572985 -5.142156 12.289817 -29.264753 10.007042 0.083134 -56.079173 -5.124574 8.965010 7.228425 -25.719788 8.556783 -4.441657 -3.287188 -5.838324 32.082028 -3.463417 -3.454215 52.308726 4.432859 13.610119 -11.556325 16.884549 -9.178087 6.605428 2.756951 -6.701204 
-0.161676 0.237955 1.004659 91.828583 0.142186 87.590619 1.886296 1.316394 5.556290 -3.083597 -10.567461 3.244326 2.456672 5.980919 -11.101766 0.000000 -0.000000 0.000000 -1.155614 -1.872012 -0.981671 0.044780 -1.153730 12.897473 3.682000 -8.675723 -9.945670 0.000000 -0.000000 0.000000 0.231981 -0.489316 9.552310 1.440752 -0.008597 -4.464102 0.516740 -2.132280 -0.494269 2.548487 1.968226 -10.187851 -3.532791 -5.074961 12.151826 -29.262785 9.933430 0.124909 -56.119767 -5.063060 8.945281 7.176704 -25.769463 8.608942 -4.367691 -3.233892 -5.833927 31.956214 -3.542343 -3.437604 52.407596 4.219103 13.548867 -11.554226 17.165094 -8.960386 6.653441 2.834630 -6.697215 
